<?xml version="1.0" encoding="UTF-8" standalone="no"?>
<svg
   xmlns:dc="http://purl.org/dc/elements/1.1/"
   xmlns:cc="http://creativecommons.org/ns#"
   xmlns:rdf="http://www.w3.org/1999/02/22-rdf-syntax-ns#"
   xmlns:svg="http://www.w3.org/2000/svg"
   xmlns="http://www.w3.org/2000/svg"
   xmlns:sodipodi="http://sodipodi.sourceforge.net/DTD/sodipodi-0.dtd"
   xmlns:inkscape="http://www.inkscape.org/namespaces/inkscape"
   style="enable-background:new 0 0 50 50;"
   version="1.1"
   viewBox="0 0 50 50"
   xml:space="preserve"
   id="svg35"
   sodipodi:docname="books.svg"
   inkscape:version="0.92.3 (2405546, 2018-03-11)"><metadata
     id="metadata41"><rdf:RDF><cc:Work
         rdf:about=""><dc:format>image/svg+xml</dc:format><dc:type
           rdf:resource="http://purl.org/dc/dcmitype/StillImage" /></cc:Work></rdf:RDF></metadata><defs
     id="defs39" /><sodipodi:namedview
     pagecolor="#ffffff"
     bordercolor="#666666"
     borderopacity="1"
     objecttolerance="10"
     gridtolerance="10"
     guidetolerance="10"
     inkscape:pageopacity="0"
     inkscape:pageshadow="2"
     inkscape:window-width="2591"
     inkscape:window-height="625"
     id="namedview37"
     showgrid="false"
     inkscape:zoom="4.72"
     inkscape:cx="25"
     inkscape:cy="25"
     inkscape:window-x="0"
     inkscape:window-y="0"
     inkscape:window-maximized="0"
     inkscape:current-layer="svg35" /><g
     id="Layer_1"
     style="fill:#0087aa;fill-opacity:1"><path
       d="M15,49h6h2h10h2h14V5H35V1H21v12h-6V1H1v48h12H15z M47,7v40H35V7H47z M23,3h10v2v42H23V13V3z M21,15v32h-6V15H21z M3,47V3   h10v10v34H3z"
       id="path2"
       style="fill:#0087aa;fill-opacity:1" /><rect
       height="2"
       width="6"
       x="5"
       y="43"
       id="rect4"
       style="fill:#0087aa;fill-opacity:1" /><rect
       height="2"
       width="6"
       x="5"
       y="38"
       id="rect6"
       style="fill:#0087aa;fill-opacity:1" /><rect
       height="2"
       width="6"
       x="5"
       y="33"
       id="rect8"
       style="fill:#0087aa;fill-opacity:1" /><rect
       height="2"
       width="8"
       x="37"
       y="43"
       id="rect10"
       style="fill:#0087aa;fill-opacity:1" /><rect
       height="2"
       width="8"
       x="37"
       y="38"
       id="rect12"
       style="fill:#0087aa;fill-opacity:1" /><rect
       height="2"
       width="8"
       x="37"
       y="33"
       id="rect14"
       style="fill:#0087aa;fill-opacity:1" /><rect
       height="2"
       width="6"
       x="25"
       y="31"
       id="rect16"
       style="fill:#0087aa;fill-opacity:1" /><rect
       height="2"
       width="6"
       x="25"
       y="35"
       id="rect18"
       style="fill:#0087aa;fill-opacity:1" /><rect
       height="2"
       width="6"
       x="25"
       y="6"
       id="rect20"
       style="fill:#0087aa;fill-opacity:1" /><rect
       height="2"
       width="6"
       x="25"
       y="10"
       id="rect22"
       style="fill:#0087aa;fill-opacity:1" /><rect
       height="2"
       width="6"
       x="25"
       y="39"
       id="rect24"
       style="fill:#0087aa;fill-opacity:1" /><rect
       height="2"
       width="6"
       x="25"
       y="43"
       id="rect26"
       style="fill:#0087aa;fill-opacity:1" /><rect
       height="2"
       width="2"
       x="7"
       y="7"
       id="rect28"
       style="fill:#0087aa;fill-opacity:1" /><rect
       height="2"
       width="2"
       x="40"
       y="11"
       id="rect30"
       style="fill:#0087aa;fill-opacity:1" /></g><g
     id="g33" /></svg>