<?xml version="1.0" encoding="UTF-8" standalone="no"?>
<svg
   xmlns:dc="http://purl.org/dc/elements/1.1/"
   xmlns:cc="http://creativecommons.org/ns#"
   xmlns:rdf="http://www.w3.org/1999/02/22-rdf-syntax-ns#"
   xmlns:svg="http://www.w3.org/2000/svg"
   xmlns="http://www.w3.org/2000/svg"
   xmlns:sodipodi="http://sodipodi.sourceforge.net/DTD/sodipodi-0.dtd"
   xmlns:inkscape="http://www.inkscape.org/namespaces/inkscape"
   style="enable-background:new 0 0 50 50;"
   version="1.1"
   viewBox="0 0 50 50"
   xml:space="preserve"
   id="svg7"
   sodipodi:docname="heart.svg"
   inkscape:version="0.92.3 (2405546, 2018-03-11)"><metadata
     id="metadata13"><rdf:RDF><cc:Work
         rdf:about=""><dc:format>image/svg+xml</dc:format><dc:type
           rdf:resource="http://purl.org/dc/dcmitype/StillImage" /></cc:Work></rdf:RDF></metadata><defs
     id="defs11" /><sodipodi:namedview
     pagecolor="#ffffff"
     bordercolor="#666666"
     borderopacity="1"
     objecttolerance="10"
     gridtolerance="10"
     guidetolerance="10"
     inkscape:pageopacity="0"
     inkscape:pageshadow="2"
     inkscape:window-width="2346"
     inkscape:window-height="668"
     id="namedview9"
     showgrid="false"
     inkscape:zoom="4.72"
     inkscape:cx="-27.542373"
     inkscape:cy="25"
     inkscape:window-x="0"
     inkscape:window-y="0"
     inkscape:window-maximized="0"
     inkscape:current-layer="svg7" /><g
     id="Layer_1"
     style="fill:#0087aa;fill-opacity:1"><path
       d="M45.281,25.915c4.949-5.004,4.949-13.146,0-18.15C42.881,5.337,39.688,4,36.292,4c-0.001,0-0.001,0-0.001,0   c-3.396,0-6.59,1.337-8.991,3.765L25,10.09l-2.3-2.325C20.299,5.337,17.106,4,13.709,4c-3.396,0-6.589,1.337-8.99,3.765   c-4.949,5.004-4.949,13.146,0,18.15L25,46.422L45.281,25.915z M6.141,9.171C8.163,7.126,10.852,6,13.709,6   c2.858,0,5.547,1.126,7.569,3.171L25,12.935l3.722-3.764C30.744,7.126,33.433,6,36.291,6c2.858,0,5.546,1.126,7.568,3.171   c4.183,4.229,4.183,11.109,0,15.338L25,43.578L6.141,24.509C1.958,20.28,1.958,13.399,6.141,9.171z"
       id="path2"
       style="fill:#0087aa;fill-opacity:1" /></g><g
     id="g5" /></svg>