<?xml version="1.0" encoding="UTF-8" standalone="no"?>
<!-- Created with Inkscape (http://www.inkscape.org/) -->

<svg
   xmlns:dc="http://purl.org/dc/elements/1.1/"
   xmlns:cc="http://creativecommons.org/ns#"
   xmlns:rdf="http://www.w3.org/1999/02/22-rdf-syntax-ns#"
   xmlns:svg="http://www.w3.org/2000/svg"
   xmlns="http://www.w3.org/2000/svg"
   xmlns:sodipodi="http://sodipodi.sourceforge.net/DTD/sodipodi-0.dtd"
   xmlns:inkscape="http://www.inkscape.org/namespaces/inkscape"
   width="200"
   height="200"
   viewBox="0 0 52.916665 52.916668"
   version="1.1"
   id="svg8"
   inkscape:version="0.92.3 (2405546, 2018-03-11)"
   sodipodi:docname="logo-small.svg">
  <defs
     id="defs2">
    <inkscape:path-effect
       effect="spiro"
       id="path-effect1615"
       is_visible="true" />
    <inkscape:path-effect
       effect="spiro"
       id="path-effect1473"
       is_visible="true" />
    <inkscape:path-effect
       effect="spiro"
       id="path-effect1232"
       is_visible="true" />
    <inkscape:path-effect
       effect="spiro"
       id="path-effect929"
       is_visible="true" />
    <inkscape:path-effect
       effect="spiro"
       id="path-effect851"
       is_visible="true" />
    <inkscape:path-effect
       effect="spiro"
       id="path-effect831"
       is_visible="true" />
    <inkscape:path-effect
       effect="spiro"
       id="path-effect826"
       is_visible="true" />
  </defs>
  <sodipodi:namedview
     id="base"
     pagecolor="#ffffff"
     bordercolor="#666666"
     borderopacity="1.0"
     inkscape:pageopacity="0.0"
     inkscape:pageshadow="2"
     inkscape:zoom="0.41593239"
     inkscape:cx="191.61681"
     inkscape:cy="341.51349"
     inkscape:document-units="mm"
     inkscape:current-layer="layer1"
     showgrid="false"
     inkscape:window-width="3200"
     inkscape:window-height="1671"
     inkscape:window-x="0"
     inkscape:window-y="55"
     inkscape:window-maximized="1"
     showguides="true"
     inkscape:measure-start="-1708.62,2951.97"
     inkscape:measure-end="-1286.18,3216.29"
     units="px"
     inkscape:guide-bbox="true" />
  <metadata
     id="metadata5">
    <rdf:RDF>
      <cc:Work
         rdf:about="">
        <dc:format>image/svg+xml</dc:format>
        <dc:type
           rdf:resource="http://purl.org/dc/dcmitype/StillImage" />
        <dc:title></dc:title>
      </cc:Work>
    </rdf:RDF>
  </metadata>
  <g
     inkscape:label="Layer 1"
     inkscape:groupmode="layer"
     id="layer1"
     transform="translate(0,-244.08332)">
    <g
       aria-label="T"
       style="font-style:normal;font-weight:normal;font-size:188.94151306px;line-height:1.25;font-family:sans-serif;letter-spacing:0px;word-spacing:0px;fill:#e6e6e6;fill-opacity:1;stroke:none;stroke-width:4.72353792"
       id="text817-9-7-1-4"
       transform="translate(-240.65735,-379.04664)" />
    <g
       aria-label="T"
       style="font-style:normal;font-weight:normal;font-size:188.94151306px;line-height:1.25;font-family:sans-serif;letter-spacing:0px;word-spacing:0px;fill:#e6e6e6;fill-opacity:1;stroke:none;stroke-width:4.72353792"
       id="text817-9-7-1-7"
       transform="translate(-240.6573,-379.04675)" />
    <g
       aria-label="T"
       style="font-style:normal;font-weight:normal;font-size:188.94151306px;line-height:1.25;font-family:sans-serif;letter-spacing:0px;word-spacing:0px;fill:#2ad4ff;fill-opacity:1;stroke:none;stroke-width:4.72353792"
       id="text817-9-7-1-5-7-6-3"
       transform="matrix(0.37968771,0,0,0.37968771,106.93494,412.59002)">
      <path
         d="m -150.25514,-442.50816 v 23.97164 c -0.25297,6.95703 0,12.87865 0,12.87865 h -10.54998 c -0.82622,0.0264 -4.71695,0.008 -7.49729,-0.0725 3.26554,-1.68139 2.16043,-0.87697 5.85884,-3.09411 7.10769,-6.60083 6.32429,-11.01074 5.25958,-15.14736 -2.94691,-7.22313 -6.16072,-13.49607 -7.42294,-18.59884 8.16981,-0.0884 0.19,-0.07 14.35179,0.0625 z"
         style="font-style:normal;font-variant:normal;font-weight:normal;font-stretch:normal;font-family:'Lohit Odia';-inkscape-font-specification:'Lohit Odia';fill:#2ad4ff;fill-opacity:1;stroke-width:4.72353792"
         id="path819-0-4-1-6-2-5-5"
         inkscape:connector-curvature="0"
         sodipodi:nodetypes="cccccccccc" />
    </g>
    <path
       style="fill:#2ad4ff;fill-opacity:1;stroke:none;stroke-width:0.07766534px;stroke-linecap:butt;stroke-linejoin:miter;stroke-opacity:1"
       d="m 22.365899,296.87144 c 4.447889,-3.65557 3.119682,-2.78545 6.182508,-4.69415 5.47707,-2.66418 6.784738,-3.2716 6.784738,-3.2716 0.0092,1.52214 0.005,7.96728 0.005,7.96728 z"
       id="path829-5"
       inkscape:connector-curvature="0"
       sodipodi:nodetypes="ccccc" />
    <path
       d="m 6.0581199,244.56425 c 3.7334303,-0.004 16.7184101,-0.0392 19.8080051,-0.037 0,0 -3.343308,1.89939 -5.304435,3.07241 -6.931084,3.54759 -8.682617,5.07964 -14.4310128,7.83832 l -5.72646165,2.2996 C 4.535256,255.44426 6.1306772,251.7147 6.0581199,247.30719 Z"
       style="font-style:normal;font-variant:normal;font-weight:normal;font-stretch:normal;font-size:188.94151306px;line-height:1.25;font-family:'Lohit Odia';-inkscape-font-specification:'Lohit Odia';letter-spacing:0px;word-spacing:0px;fill:#2ad4ff;fill-opacity:1;stroke:none;stroke-width:1.79346931"
       id="path819-0-4-1-6-2-5-5-6"
       inkscape:connector-curvature="0"
       sodipodi:nodetypes="csccccc" />
    <g
       aria-label="T"
       style="font-style:normal;font-weight:normal;font-size:188.94151306px;line-height:1.25;font-family:sans-serif;letter-spacing:0px;word-spacing:0px;fill:#2ad4ff;fill-opacity:1;stroke:none;stroke-width:4.72353792"
       id="text817-9-7-1-5-7-6-3-7"
       transform="matrix(0.37968771,0,0,0.37968771,106.93494,412.59002)">
      <path
         d="m -210.4216,-442.50816 34.46674,-0.14692 7.94424,7.21209 c 10.7925,18.97608 11.91156,20.38148 -0.41207,27.44613 -4.26782,1.53574 -5.48765,2.06387 -7.57361,2.18338 l -12.57151,0.15558 v 19.0943 9.79795 45.80291 c -10.58077,6.14903 -19.57121,11.73802 -39.89475,23.90048 l -0.62827,-16.24185 c 0.58052,-12.69444 -0.62069,-45.07082 39.9629,-72.22919 l -4.43234,3.0439 -55.66426,33.57367 c 20.76197,-12.97915 20.95215,-18.6133 20.76197,-27.50441 v -19.23776 h -38.31267 v -1.59269 c 0.0124,-2.70128 2.41088,-4.69 4.11835,-5.68249 52.23528,-29.57511 30.12524,-17.01413 52.23528,-29.57511 z"
         style="font-style:normal;font-variant:normal;font-weight:normal;font-stretch:normal;font-family:'Lohit Odia';-inkscape-font-specification:'Lohit Odia';fill:#2ad4ff;fill-opacity:1;stroke-width:4.72353792"
         id="path819-0-4-1-6-2-5-5-3"
         inkscape:connector-curvature="0"
         sodipodi:nodetypes="ccccccccccccccccccccc" />
    </g>
  </g>
</svg>
