<?xml version="1.0" encoding="UTF-8" standalone="no"?>
<svg
   xmlns:dc="http://purl.org/dc/elements/1.1/"
   xmlns:cc="http://creativecommons.org/ns#"
   xmlns:rdf="http://www.w3.org/1999/02/22-rdf-syntax-ns#"
   xmlns:svg="http://www.w3.org/2000/svg"
   xmlns="http://www.w3.org/2000/svg"
   xmlns:sodipodi="http://sodipodi.sourceforge.net/DTD/sodipodi-0.dtd"
   xmlns:inkscape="http://www.inkscape.org/namespaces/inkscape"
   style="enable-background:new 0 0 50 50;"
   version="1.1"
   viewBox="0 0 50 50"
   xml:space="preserve"
   id="svg30"
   sodipodi:docname="report.svg"
   inkscape:version="0.92.3 (2405546, 2018-03-11)"><metadata
     id="metadata36"><rdf:RDF><cc:Work
         rdf:about=""><dc:format>image/svg+xml</dc:format><dc:type
           rdf:resource="http://purl.org/dc/dcmitype/StillImage" /></cc:Work></rdf:RDF></metadata><defs
     id="defs34" /><sodipodi:namedview
     pagecolor="#ffffff"
     bordercolor="#666666"
     borderopacity="1"
     objecttolerance="10"
     gridtolerance="10"
     guidetolerance="10"
     inkscape:pageopacity="0"
     inkscape:pageshadow="2"
     inkscape:window-width="2688"
     inkscape:window-height="572"
     id="namedview32"
     showgrid="false"
     inkscape:zoom="4.72"
     inkscape:cx="-27.542373"
     inkscape:cy="25"
     inkscape:window-x="0"
     inkscape:window-y="0"
     inkscape:window-maximized="0"
     inkscape:current-layer="svg30" /><g
     id="Layer_1"
     style="fill:#0088aa;fill-opacity:1"><path
       d="M26,3V1h-2v2H3H1v2h2v26H1v2h2h17.471L14,47.791V49h2v-0.791L22.654,33H24v16h2V33h1.346L34,48.209V49h2v-1.209L29.529,33   H47h2v-2h-2V5h2V3h-2H26z M45,31H5V5h40V31z"
       id="path15"
       style="fill:#0088aa;fill-opacity:1" /><path
       d="M16,28c4.411,0,8-3.589,8-8v-1h-7v-7h-1c-4.411,0-8,3.589-8,8S11.589,28,16,28z M15,14.083V21h6.917   c-0.478,2.834-2.949,5-5.917,5c-3.309,0-6-2.691-6-6C10,17.032,12.166,14.561,15,14.083z"
       id="path17"
       style="fill:#0088aa;fill-opacity:1" /><path
       d="M28,16c0-4.411-3.589-8-8-8h-1v9h9V16z M21,15v-4.917c2.509,0.422,4.494,2.408,4.917,4.917H21z"
       id="path19"
       style="fill:#0088aa;fill-opacity:1" /><rect
       height="2"
       width="10"
       x="31"
       y="10"
       id="rect21"
       style="fill:#0088aa;fill-opacity:1" /><rect
       height="2"
       width="10"
       x="31"
       y="15"
       id="rect23"
       style="fill:#0088aa;fill-opacity:1" /><rect
       height="2"
       width="10"
       x="31"
       y="20"
       id="rect25"
       style="fill:#0088aa;fill-opacity:1" /></g><g
     id="g28" /></svg>