<?xml version="1.0" encoding="UTF-8" standalone="no"?>
<svg
   xmlns:dc="http://purl.org/dc/elements/1.1/"
   xmlns:cc="http://creativecommons.org/ns#"
   xmlns:rdf="http://www.w3.org/1999/02/22-rdf-syntax-ns#"
   xmlns:svg="http://www.w3.org/2000/svg"
   xmlns="http://www.w3.org/2000/svg"
   xmlns:sodipodi="http://sodipodi.sourceforge.net/DTD/sodipodi-0.dtd"
   xmlns:inkscape="http://www.inkscape.org/namespaces/inkscape"
   height="60px"
   version="1.1"
   viewBox="0 0 60 60"
   width="60px"
   id="svg13"
   sodipodi:docname="ubuntu.svg"
   inkscape:version="0.92.3 (2405546, 2018-03-11)">
  <metadata
     id="metadata17">
    <rdf:RDF>
      <cc:Work
         rdf:about="">
        <dc:format>image/svg+xml</dc:format>
        <dc:type
           rdf:resource="http://purl.org/dc/dcmitype/StillImage" />
      </cc:Work>
    </rdf:RDF>
  </metadata>
  <sodipodi:namedview
     pagecolor="#ffffff"
     bordercolor="#666666"
     borderopacity="1"
     objecttolerance="10"
     gridtolerance="10"
     guidetolerance="10"
     inkscape:pageopacity="0"
     inkscape:pageshadow="2"
     inkscape:window-width="1221"
     inkscape:window-height="1321"
     id="namedview15"
     showgrid="false"
     inkscape:zoom="3.9333333"
     inkscape:cx="30"
     inkscape:cy="30"
     inkscape:window-x="0"
     inkscape:window-y="0"
     inkscape:window-maximized="0"
     inkscape:current-layer="svg13" />
  <title
     id="title2" />
  <desc
     id="desc4" />
  <defs
     id="defs6" />
  <g
     id="Page-1"
     transform="matrix(0.75423729,0,0,0.75423729,7.3728814,7.3728814)"
     style="fill:none;fill-rule:evenodd;stroke:none;stroke-width:1">
    <g
       id="Social_icons"
       transform="translate(-822,-1655)">
      <g
         id="Ubuntu"
         transform="translate(822,1655)">
        <circle
           cx="30"
           cy="30"
           id="Oval"
           r="30"
           style="fill:#dd4814" />
        <path
           d="m 14.74884,30.000108 c 0,2.163417 -1.73417,3.915641 -3.873711,3.915641 C 8.7348783,33.915749 7,32.162809 7,30.000108 c 0,-2.1627 1.7348783,-3.916358 3.875129,-3.916358 2.138832,0 3.873711,1.753658 3.873711,3.916358 z m 22.04245,19.04165 c 1.070834,1.872574 3.438574,2.514435 5.292513,1.432727 1.851104,-1.080992 2.487509,-3.475794 1.416675,-5.349084 -1.069416,-1.87329 -3.438574,-2.514435 -5.291095,-1.432727 -1.852521,1.082425 -2.487509,3.476511 -1.418093,5.349084 z m 6.709188,-34.167659 c 1.070834,-1.872573 0.436555,-4.267376 -1.416675,-5.349084 -1.851813,-1.0809921 -4.221679,-0.4391306 -5.292513,1.433443 -1.069416,1.872573 -0.434428,4.268092 1.418093,5.349084 1.852521,1.082425 4.223096,0.439847 5.291095,-1.433443 z m -13.112221,3.957907 c 5.773715,0 10.510613,4.473688 11.00528,10.178088 L 47,28.921981 c -0.26576,-4.24087 -2.084263,-8.054071 -4.887141,-10.86508 -1.485418,0.579538 -3.206832,0.500738 -4.69225,-0.366778 -1.486836,-0.867516 -2.415223,-2.336777 -2.661139,-3.92782 -1.393289,-0.381821 -2.857447,-0.586701 -4.371213,-0.586701 -2.6498,0 -5.156444,0.626818 -7.382446,1.742195 l 2.727756,4.952219 c 1.415258,-0.666218 2.992807,-1.03801 4.65469,-1.03801 z M 19.340456,30.000108 c 0,-3.778816 1.856064,-7.118501 4.697211,-9.139362 L 21.15896,15.997357 c -3.334397,2.250813 -5.819071,5.685058 -6.866518,9.709586 1.240211,1.010072 2.033946,2.557417 2.033946,4.293165 0,1.735748 -0.793735,3.283093 -2.033946,4.293165 1.048155,4.025245 3.532121,7.458773 6.866518,9.710303 l 2.878707,-4.86339 c -2.841147,-2.02086 -4.697211,-5.361262 -4.697211,-9.140078 z m 11.047801,11.168819 c -1.661883,0 -3.239432,-0.372509 -4.65469,-1.037294 l -2.727756,4.952219 c 2.226002,1.115377 4.732646,1.741479 7.382446,1.741479 1.513766,0 2.977924,-0.204164 4.371213,-0.586702 0.245916,-1.591759 1.174303,-3.060303 2.661139,-3.927819 1.485418,-0.867516 3.206832,-0.9456 4.69225,-0.366778 C 44.915737,39.13159 46.73424,35.317672 47,31.078951 l -5.606463,-0.08955 c -0.494667,5.705116 -5.231565,10.179521 -11.00528,10.179521 z"
           id="Shape"
           inkscape:connector-curvature="0"
           style="fill:#ffffff" />
      </g>
    </g>
  </g>
</svg>
