<?xml version="1.0" encoding="UTF-8" standalone="no"?>
<svg
   xmlns:dc="http://purl.org/dc/elements/1.1/"
   xmlns:cc="http://creativecommons.org/ns#"
   xmlns:rdf="http://www.w3.org/1999/02/22-rdf-syntax-ns#"
   xmlns:svg="http://www.w3.org/2000/svg"
   xmlns="http://www.w3.org/2000/svg"
   xmlns:sodipodi="http://sodipodi.sourceforge.net/DTD/sodipodi-0.dtd"
   xmlns:inkscape="http://www.inkscape.org/namespaces/inkscape"
   style="enable-background:new 0 0 50 50;"
   version="1.1"
   viewBox="0 0 50 50"
   xml:space="preserve"
   id="svg7"
   sodipodi:docname="wait.svg"
   inkscape:version="0.92.3 (2405546, 2018-03-11)"><metadata
     id="metadata13"><rdf:RDF><cc:Work
         rdf:about=""><dc:format>image/svg+xml</dc:format><dc:type
           rdf:resource="http://purl.org/dc/dcmitype/StillImage" /></cc:Work></rdf:RDF></metadata><defs
     id="defs11" /><sodipodi:namedview
     pagecolor="#ffffff"
     bordercolor="#666666"
     borderopacity="1"
     objecttolerance="10"
     gridtolerance="10"
     guidetolerance="10"
     inkscape:pageopacity="0"
     inkscape:pageshadow="2"
     inkscape:window-width="2446"
     inkscape:window-height="1176"
     id="namedview9"
     showgrid="false"
     inkscape:zoom="4.72"
     inkscape:cx="-27.542373"
     inkscape:cy="25"
     inkscape:window-x="0"
     inkscape:window-y="0"
     inkscape:window-maximized="0"
     inkscape:current-layer="svg7" /><g
     id="Layer_1"
     style="fill:#0087aa;fill-opacity:1"><path
       d="M11,40.485V47H7v2h36v-2h-4v-6.515c0-1.871-0.729-3.628-2.051-4.95L26.414,25l10.535-10.535   C38.271,13.143,39,11.385,39,9.515V3h4V1H7v2h4v6.515c0,1.871,0.729,3.628,2.051,4.95L23.586,25L13.051,35.535   C11.729,36.857,11,38.615,11,40.485z M14.465,13.05C13.521,12.106,13,10.851,13,9.515V3h24v6.515c0,1.336-0.521,2.592-1.465,3.536   L25,23.586L14.465,13.05z M25,26.414L35.535,36.95C36.479,37.894,37,39.149,37,40.485V47H13v-6.515   c0-1.336,0.521-2.592,1.465-3.536L25,26.414z"
       id="path2"
       style="fill:#0087aa;fill-opacity:1" /></g><g
     id="g5" /></svg>